<svg id="Layer_1" data-name="Layer 1" xmlns="http://www.w3.org/2000/svg" viewBox="0 0 1800.47 691.95"><defs><style>.cls-1,.cls-6,.cls-7{fill:#295f2d;}.cls-2{font-size:560.53px;}.cls-2,.cls-3{fill:#ffe67c;}.cls-2,.cls-6,.cls-7{font-family:BaskOldFace, Baskerville Old Face;}.cls-4{fill:#6cb24b;}.cls-5{fill:none;stroke:#ffe67c;stroke-miterlimit:10;stroke-width:15px;}.cls-6{font-size:160px;}.cls-7{font-size:104px;letter-spacing:0.8em;}</style></defs><circle class="cls-1" cx="264.58" cy="427.37" r="264.58"/><text class="cls-2" transform="translate(143.13 467.2)">g</text><ellipse class="cls-1" cx="292.68" cy="296.4" rx="155.55" ry="117.33"/><path class="cls-3" d="M328.3,523.39A106.37,106.37,0,0,0,359,610.93c24.3,23.85,58.84,33.64,92.14,27.49,19.12-3.52,36.64-12.82,51.16-25.59,4.87-4.28,4.38-12.6,0-17-4.83-4.84-12.09-4.3-17,0-20,17.59-47.66,24.47-72.76,18.37a80.34,80.34,0,0,1-54.67-46.78c-6-14.41-7.46-28.56-5.6-44.06.77-6.44-6.07-12-12-12-7.13,0-11.23,5.54-12,12Z" transform="translate(-166.28 -243.87)"/><circle class="cls-4" cx="261.67" cy="306.29" r="41.45"/><circle class="cls-5" cx="264.58" cy="427.37" r="226.64"/><text class="cls-6" transform="translate(669.13 445.88)">GNLIFE TECH</text><text class="cls-7" transform="translate(668.72 602.56)">NETWORK</text></svg>